<svg xmlns="http://www.w3.org/2000/svg" viewBox="0 0 188.78 283.34"><defs><style>.cls-1{fill:#adf2c8;}.cls-1,.cls-2{opacity:0.7;}.cls-2{fill:#77b791;}.cls-3{fill:#aeb7f4;}</style></defs><title>bottle_icon_1</title><g id="Layer_2" data-name="Layer 2"><g id="Layer_4" data-name="Layer 4"><path class="cls-1" d="M87.8,256.41a42.68,42.68,0,0,0-1.49,4.88,18.55,18.55,0,0,1-3.8,7A129.93,129.93,0,0,1,71,279.17c-1.83,1.29-7.31,5.15-12.19,3.66s-5.76-2-7.52-2.91-2.64-1.43-4-1c-1.14.34-3.17-.6-3.8-.92l-.12.24-25-13.44s-2.64-1.42-3.05-2.78-1.29-1.83-3-2.77-2.64-1.43-6.57-4.68S2,244.6,2.1,242.36a128.81,128.81,0,0,1,2.71-15.58,18.53,18.53,0,0,1,3.79-7,42.78,42.78,0,0,0,3.25-3.93c.47-.88-1.08-2.21-1.08-2.21s13.61-27.39,15-27.79,5.62-8.33,5.62-8.33,5.69-10.57,5.75-12.8S40,159.39,40,159.39a15.37,15.37,0,0,0,5.55-6.09c2.37-4.4.61-5.35,2.92-7.52,5.3-5,3.72-4.81,3.79-7s2.37-4.4,7-11S60.82,120.65,65,115a39.08,39.08,0,0,0,5.69-10.57,32.29,32.29,0,0,1,4.67-6.57c2.31-2.17,2-5.76,2-5.76S76.13,88,81.14,85s3.25-3.93,3.73-4.81-.49-3.32-.49-3.32L97.69,52.19c.84-1.56,4.72-4.55,6.55-5.83s13.2-7.65,17.74-9.75a141.93,141.93,0,0,1,15.38-5.35c2.71-.82,3.18-1.7,3.18-1.7,1.83-1.28,4.2-5.69,4.2-5.69-6.5-6.91,1.9-3.52,1.9-3.52C153.68-5.38,165,5.25,165,5.25l.81.61a25.34,25.34,0,0,0,5.33,3.08,10.46,10.46,0,0,0,1.5.51l.29.07,0,.06a27.14,27.14,0,0,0,6.43,3.08s14.87,3.76-2.74,23.81c0,0,7.45,5.15-1.89,3.52,0,0-2.15,4.23-2.21,6.47,0,0-.48.88.33,3.59a142.17,142.17,0,0,1,4,15.78c.74,4.94,1.69,18,1.62,20.18s-.42,7.12-1.26,8.67L163.85,119.4s-2.56.54-3,1.42-2.23-.06-2,5.76-3.79,7-3.79,7-3.19,1.69-3.73,4.8a32.06,32.06,0,0,1-2.91,7.52,39.16,39.16,0,0,0-5.69,10.57c-2.44,6.63-4.61,4.33-7.52,11.85s-3.45,10.63-5.28,11.92-2.55-.14-3.8,7c-.54,3.12-2.3,2.17-4.67,6.57a15.37,15.37,0,0,0-2,8s-1,4-2.85,5.29S109.07,219,109.07,219s-4.27,7.92-3.86,9.28-15,27.78-15,27.78S88.27,255.53,87.8,256.41Z"/><path class="cls-2" d="M164.9,30.68l-20.66-11s-6.19-3.28-1.67,3.1c0,0,1.06,2.25-2.6,4.82s-11.11,4.81-11.11,4.81L116.4,37.57s-16.8,8-18.22,10.64-3.51,5.46-4.94,8.12L82.77,75.76s1.25,4-.57,5.3a38.89,38.89,0,0,0-4.61,4.33S75,89.11,75.83,91.82s-5,8.13-5,8.13L60.45,119.32l-5,10.36a31.88,31.88,0,0,1-4.2,5.69c-2.78,3,.95,5.62-.41,6s-2.64-1.42-5.55,6.1-6.37,10.76-6.37,10.76-.4-1.35-5.21,9.69-8.06,15-8.06,15l-4.7,7.66L8.89,213s1.91,1.71-.39,3.88a32.29,32.29,0,0,0-4.67,6.57S-.28,233.24,0,242.15s7.75,14,7.75,14,7.45,4,5.41,5.19l30.47,16.4s-.26-1.27,5,1.57a45.13,45.13,0,0,0,9.28,3.86s8.2.5,11.65-.54c2.71-.81,10.94-2.58,16.8-15.37,6.22-13.6-2.07-17.17,1.29-12.94,0,0-.42-2.39-1.09-1.15-.47.88-3.18,9.08-3.18,9.08l-.48.88a24.89,24.89,0,0,1-6.5,7.85c-7.64,7.46-9.7,6.38-9.82,6.64C55,263.45,41.76,263.72,41.76,263.72a79.81,79.81,0,0,1-24.32-17.07c-11.72-12,2.44-21.4,2.44-21.4s15,5.82,6.3-1.15,2.71-15.58,2.71-15.58c-7-3.79-1.22-4.07-1.22-4.07l2.64,1.43c2.64,1.42.14-4.47,3.86-9.28S37.83,194,47,197.82c5.47,2.29,5.86,1.53.89-1.73C38.91,190.24,37.63,186,37.63,186c1.28-12.94,6.09-9.22,6.09-9.22s7.52,2.92,11.52,3.93-3.05-2.77-6.1-5.55,1.56-7.11,3-9.75,7.11,1.55,19,6.84-7.45-5.15-11.85-7.52-9.41-14.16,3.86-9.28,1-1.76-4.74-6-4.33-4.61-.34-3.59,4.07-1.22,4.07-1.22l3.31-6.16c1.9-3.52,5.42-1.63,5.42-1.63,32.17,16.19,15,5.83,15,5.83s-7.45-5.15-14-9.82-5.83-14.5,14.09-7.18,1.42-2.64-4.74-6-4.75-6-3.73-10,1.56-7.11,13.07-3.18S92,104,92,104a19.9,19.9,0,0,1-6.1-5.56c-2.57-3.65,2.51-8.87,2.51-8.87s1.42-2.64,11.1,2.58,5.35.61,5.35.61-3.92-3.26-8.73-7-2-6.77-1-10.77S101,72.45,101,72.45s7.52,2.92,19,6.85-5.22-5.08-5.22-5.08L106.92,70a21.33,21.33,0,0,1-4.81-3.73c-2.17-2.3.13-4.47,1.56-7.11s2.77-3,5.55-6.09,11-7.72,14.63-10.3,11.78-5,13.14-5.42a14.53,14.53,0,0,1,3.59-.33l4.47.13a31.67,31.67,0,0,0,5.82-.27c1.36-.41.07-2.23.07-2.23a4.4,4.4,0,0,0-2.17-2.31,2,2,0,0,1-.81-2.71l.95-1.76a4.92,4.92,0,0,1,2.3-2.16C152.57,25.25,166,30.8,166,30.8"/><path class="cls-3" d="M150.42,6.82h34.26a1.43,1.43,0,0,1,1.43,1.43V29.82a0,0,0,0,1,0,0h-38a0,0,0,0,1,0,0V9.13a2.31,2.31,0,0,1,2.31-2.31Z" transform="translate(28.66 -77.04) rotate(28.3)"/></g></g></svg>