<svg xmlns="http://www.w3.org/2000/svg" viewBox="0 0 554.66 187.38"><defs><style>.cls-1{fill:#cccfd0;}.cls-2{fill:#696f6f;}.cls-3{fill:#949b9c;}.cls-4{fill:#a8aeb0;}.cls-5{fill:#e1e2c7;}</style></defs><title>Laks</title><g id="Layer_2" data-name="Layer 2"><g id="Layer_3" data-name="Layer 3"><path class="cls-1" d="M485,125.83c19.29-4.72,38.32-14.24,50.65-18.47s14.79-19,6.16-12.66S508.53,101,508.53,101c2.47-12.66,33.29-16.88,33.29-16.88s18.49,1,11.1-7.39S482.64,54.6,475.24,53.55c0,0-43.25-9-53.11-12.14S360.48,6.59,324.73.25c0,0,14.79,15.83,8.63,30.61,0,0-85.07,0-134.38,12.66,0,0-35.76-8.44-56.72-1.05S122.54,53,125,55.13s11.1,5.27,11.1,5.27L93,76.23S25.14,56.18.48,56.18c0,0,22.19,23.22,22.19,40.1S27,148.52,19.59,153.8s27.74-20.58,78.29-30.08c0,0,40.68,1.06,67.81,10.55,0,0,3.7,20,32.05,28.5s27.13,16.88,27.13,16.88,32.05-15.83,38.22-24.27c0,0,56.71,6.33,80.13,4.22,0,0,11.1,16.88,11.1,27.44,0,0,38.22-15.83,59.18-40.1C413.5,146.94,467.74,130.05,485,125.83Z"/><path class="cls-2" d="M421.58,41.16C431.73,43.22,359.94,6.33,324.18,0c0,0,14.8,15.83,8.63,30.6C332.81,30.6,407.38,38.26,421.58,41.16Z"/><path class="cls-2" d="M198.85,43.6s-35.75-8.45-56.71-1.06S122.41,53.09,124.88,55.2,136,60.48,136,60.48,189.51,45.73,198.85,43.6Z"/><path class="cls-2" d="M97.4,123.6C46.85,133.09,11.71,159,19.11,153.67S22.19,113,22.19,96.16,0,56.06,0,56.06c24.66,0,92.47,20,92.47,20L79.55,81.7S53.08,100,78.2,116.32Z"/><path class="cls-2" d="M262.75,155.46c10.41,1-38.22,24.27-38.22,24.27s1.23-8.44-27.12-16.88-32.06-28.49-32.06-28.49S253.19,154.56,262.75,155.46Z"/><path class="cls-2" d="M343.35,159.94s11.1,16.88,11.1,27.44c0,0,38.22-15.83,59.18-40.1C413.63,147.28,371.63,157.41,343.35,159.94Z"/><path class="cls-2" d="M453,106.21s-32.89-3.07-46.57,5.4,7.6,1.49,14.76,6.42,12.58,14.06,22.82,5.16S457.49,112,457.49,112,453.86,108.87,453,106.21Z"/><path class="cls-3" d="M198.79,43.29c49.88-10.2,134.38-12.66,134.38-12.66s71.44,6,88.77,10.55c10,2.63,53.12,12.14,53.12,12.14s-25.6,12.77-28.31,32.45c0,0-127.56-45.46-379,11.89,0,0-1.1-20.57,25.06-21.66l43.15-15.82S190.19,45.05,198.79,43.29Z"/><path class="cls-4" d="M485,125.64c19.3-4.72,38.32-14.24,50.65-18.47s14.8-19,6.17-12.66-33.29,6.33-33.29,6.33C511,88.18,541.77,84,541.77,84s18.49,1.05,11.09-7.39-70.27-22.16-77.67-23.21c0,0-25.05,3.91-29.8,32.41S485,125.64,485,125.64Z"/><circle class="cls-5" cx="500.7" cy="85.44" r="6.45"/><circle cx="500.7" cy="85.44" r="3.73"/><path class="cls-2" d="M460.32,64.06s-10.86,9.5-10.86,27.14,21.72,25.8,24.43,26.47c0,0-22.39-11.32-22.39-28.5C451.5,81.7,457.61,68.81,460.32,64.06Z"/></g></g></svg>