<svg xmlns="http://www.w3.org/2000/svg" viewBox="0 0 763.71 691.78"><defs><style>.cls-1{fill:#04b3bc;}</style></defs><title>Whirl</title><g id="Layer_2" data-name="Layer 2"><g id="Layer_6" data-name="Layer 6"><path class="cls-1" d="M0,86.93a17.59,17.59,0,0,1,2-6.18c.51-.92,1-1.91,1.58-2.78s1.2-1.75,1.82-2.61a62.85,62.85,0,0,1,4.16-4.77c.75-.72,1.51-1.45,2.28-2.17s1.53-1.46,2.35-2.08c6.39-5.47,13.61-9.5,20.93-13.22,1.85-.86,3.71-1.71,5.58-2.53s3.74-1.68,5.65-2.35l5.72-2.1c1.9-.72,3.82-1.38,5.76-1.93,3.87-1.16,7.75-2.32,11.66-3.28s7.89-1.6,11.86-2.24c1-.18,2-.33,3-.47l3-.34c2-.18,4-.4,6-.55,4-.31,8-.72,12-.89,8.09-.37,16.17-.57,24.33-.14A58.77,58.77,0,0,1,142,38.11a26.09,26.09,0,0,1,6.1,2.55,17.14,17.14,0,0,1,5.19,4.76A18.74,18.74,0,0,1,156,51.93a33.66,33.66,0,0,1,.73,6.59c.09,4.25-.29,8.38-.13,11.84a7,7,0,0,0,.84,3.56c.19.17.22,0,.26-.1s.24-.07.66-.06a18.52,18.52,0,0,0,3.94-.58c1.56-.33,3.25-.89,4.94-1.43s3.42-1.2,5.16-1.88c.87-.31,1.73-.69,2.59-1.07l2.59-1.1,5.17-2.17c1.69-.79,3.32-1.68,5-2.51a146.17,146.17,0,0,0,18.94-11.69c6-4.47,12.07-9.16,18.4-14L230,33.8,232.44,32,235,30.32l5.16-3.38c1.8-1.06,3.62-2.08,5.43-3.11.91-.51,1.8-1,2.73-1.53l2.84-1.36,5.68-2.67,5.89-2.2L265.67,15c1-.39,2-.58,3-.88,2-.54,4-1.1,6-1.61,1-.24,2-.56,3-.73l3-.53a105.09,105.09,0,0,1,12.15-1.63c2-.14,4.05-.3,6.08-.39l3-.17c1,0,2,0,3,0,4,.1,8.06.23,12.06.51l.14,1.67c-3.83,1.21-7.64,2.27-11.43,3.3-.94.26-1.89.48-2.83.77l-2.79.93c-1.85.64-3.7,1.21-5.54,1.8a57.76,57.76,0,0,0-5.47,1.87L283.79,22l-2.66,1c-.9.32-1.73.78-2.59,1.16-1.71.81-3.43,1.58-5.14,2.35s-3.35,1.67-5,2.55l-4.9,2.64-4.72,3-2.35,1.47c-.78.49-1.52,1.07-2.29,1.6-1.52,1.07-3,2.17-4.55,3.21l-4.49,3.45c-1.5,1.12-3,2.34-4.5,3.54l-4.53,3.61c-6.11,4.88-12.55,9.84-19.49,14.34a140.11,140.11,0,0,1-22.17,11.56c-1.94.78-3.85,1.62-5.8,2.34l-5.93,1.93a83,83,0,0,1-12.16,3.16,51.18,51.18,0,0,1-6.66.81A25.73,25.73,0,0,1,156,85a13.23,13.23,0,0,1-4.74-2.34A10.5,10.5,0,0,1,148,78a13.87,13.87,0,0,1-.75-4.47,23.62,23.62,0,0,1,.27-3.62c.63-4.41,1.78-8.05,2.23-11.69a24.13,24.13,0,0,0,.18-5.2,11.32,11.32,0,0,0-1.35-4.49C147,45.82,144,44,140.57,43a36.65,36.65,0,0,0-11-1.27c-7.62.13-15.26,1.77-22.73,3.86-3.74,1-7.5,2.28-11.23,3.42-1.87.6-3.75,1.13-5.62,1.69l-2.81.79c-.92.31-1.85.6-2.78.88q-5.55,1.73-11.17,3.14c-3.7,1.06-7.4,2.09-11.13,3-1.88.44-3.69,1-5.52,1.58L51,61.71c-.91.29-1.86.5-2.76.8l-2.7.9c-1.8.62-3.61,1.2-5.44,1.77C33,67.76,25.83,70.33,19.18,73.8c-1.72.79-3.24,1.82-4.94,2.69-.86.43-1.56,1-2.36,1.49s-1.61,1-2.35,1.55L7.3,81.23c-.74.58-1.38,1.22-2.1,1.84s-1.29,1.32-2,2a20.26,20.26,0,0,0-1.6,2.19Z"/><path class="cls-1" d="M448.11,23.46a24.68,24.68,0,0,1,1.93-7,24.61,24.61,0,0,1,3.8-6.29A26.35,26.35,0,0,1,466.25,1.8,42.72,42.72,0,0,1,481.11,0a63.28,63.28,0,0,1,7.3.9l3.6.67,3.5.92A137.05,137.05,0,0,1,522,13.27l6.25,3.36,6.07,3.59,3,1.81,3,1.92,5.9,3.84a451.68,451.68,0,0,1,44.1,34.41c14,12.3,27.38,25,40.11,38.6,3.19,3.4,6.27,6.9,9.34,10.46s6.08,7.18,8.93,11a97.47,97.47,0,0,1,8.07,12.27,29.28,29.28,0,0,1,3,7.92,11.64,11.64,0,0,1-.25,5.85,9.2,9.2,0,0,1-1.77,3.15,15.86,15.86,0,0,1-1.27,1.2c-.43.3-.87.58-1.32.85a14.38,14.38,0,0,1-4.76,1.51,29,29,0,0,1-4,.28c-2.57,0-5-.18-7.31-.39-4.68-.43-9.2-1-13.54-1.18a25.68,25.68,0,0,0-6.07.4,7.49,7.49,0,0,0-2.26.82,2.51,2.51,0,0,0-1.17,1.18c-.53.94-.4,2.87.12,4.76a28.6,28.6,0,0,0,2.41,5.85A83.45,83.45,0,0,0,625.78,178c1.38,1.78,2.71,3.61,4.14,5.35l4.44,5.12a151.25,151.25,0,0,0,20.21,18.11c14.48,11,30.66,19.55,46.52,29.38,7.91,4.95,15.82,10.24,23,16.8a87.23,87.23,0,0,1,10.1,10.81l2.28,3,2,3.19a58.83,58.83,0,0,1,3.69,6.64,75.9,75.9,0,0,1,7.34,29.19,131.61,131.61,0,0,1-2,29.25l-1.39,7.08c-.21,1.19-.49,2.35-.79,3.5l-.87,3.48c-.59,2.29-1.14,4.69-1.77,6.89l-1.88,6.67q-3.81,13.35-7.85,26.61c-2.65,8.85-5.49,17.64-8.28,26.39s-5.69,17.45-7.91,25.82c-.54,2.08-1,4.13-1.39,6.07a28.19,28.19,0,0,0-.58,5.17,6.94,6.94,0,0,0,.27,2.19c0,.05,0,.08.19.25a5,5,0,0,0,1.11.68,22.94,22.94,0,0,0,4.8,1.48c1.92.42,4,.76,6.17,1.06,4.33.59,8.87,1.12,13.43,1.63a61.63,61.63,0,0,1,8,1.25,23.16,23.16,0,0,1,9.46,4.7,19,19,0,0,1,2.23,2.42,15.73,15.73,0,0,1,2.8,6.12,19.82,19.82,0,0,1,.4,3.09,24.65,24.65,0,0,1-2,9.74,42.1,42.1,0,0,1-3.83,7.23,74.32,74.32,0,0,1-4.43,6.18,131.74,131.74,0,0,1-9.68,10.86,230.77,230.77,0,0,1-21.2,18.75c-3.68,2.9-7.39,5.74-11.18,8.47s-7.65,5.35-11.55,7.91a255,255,0,0,1-24.12,14.17,139,139,0,0,1-12.8,5.78,61.65,61.65,0,0,1-6.74,2.19,24.05,24.05,0,0,1-7.17.93v-1.68a23.6,23.6,0,0,0,6.3-1.85c2-.88,4.06-1.9,6-3,4-2.17,7.8-4.63,11.57-7.16,7.55-5.07,14.78-10.63,21.87-16.33q5.3-4.29,10.42-8.79c3.43-3,6.81-6,10.11-9.09a268.06,268.06,0,0,0,18.75-19.3,117.38,117.38,0,0,0,8-10.28,58.94,58.94,0,0,0,3.28-5.26,32.2,32.2,0,0,0,2.33-5.09,9.64,9.64,0,0,0,.68-3.71c-.09-.28-.1-.44-.16-.4s-.07,0-.16-.08a10.07,10.07,0,0,0-3-1,47.9,47.9,0,0,0-5.72-.56c-4.6-.32-9.23-.57-14-1.09-2.41-.26-4.87-.57-7.46-1.05a39.55,39.55,0,0,1-8.42-2.39,23,23,0,0,1-4.83-2.77,17.88,17.88,0,0,1-4.43-4.82,19,19,0,0,1-2.38-5.84,24.11,24.11,0,0,1-.63-5.21,44.7,44.7,0,0,1,.71-8.55c.43-2.59,1-5,1.56-7.41,1.15-4.76,2.54-9.26,3.91-13.73s2.77-8.88,4.24-13.25l8.7-26.14q4.33-13,8.47-26.13l2.07-6.54c.72-2.21,1.25-4.28,1.89-6.42l.92-3.19c.32-1.06.62-2.13.84-3.2l1.48-6.41a120.8,120.8,0,0,0,2.7-25.64,66.24,66.24,0,0,0-4.78-24.3,47.66,47.66,0,0,0-2.65-5.6l-1.49-2.74L724.07,271a77.32,77.32,0,0,0-8-10c-5.91-6.35-12.93-12-20.2-17.39S681,233,673.43,227.68c-1.9-1.32-3.79-2.64-5.67-4s-3.77-2.7-5.63-4.11-3.75-2.74-5.57-4.19-3.69-2.84-5.48-4.34a192.59,192.59,0,0,1-20.46-19.13L626,186.58c-1.5-1.8-2.9-3.68-4.35-5.52a105.05,105.05,0,0,1-7.9-11.77,37.89,37.89,0,0,1-3.07-6.79l-.3-.93-.23-1c-.07-.34-.15-.66-.21-1l-.11-1.08a12.56,12.56,0,0,1,0-2.29,11.41,11.41,0,0,1,.24-1.22,5.27,5.27,0,0,1,.4-1.22,9.93,9.93,0,0,1,.58-1.18c.25-.37.51-.74.77-1.09a10,10,0,0,1,1.89-1.7,13.39,13.39,0,0,1,4.07-1.86,35.67,35.67,0,0,1,7.61-1.08c4.87-.23,9.53,0,14,.07a59.28,59.28,0,0,0,6.48-.2,21.14,21.14,0,0,0,2.81-.46,5.71,5.71,0,0,0,1.73-.72.22.22,0,0,1,.11-.12s-.05,0-.05,0-.13.12-.18.13,0-.28-.27-1a21.15,21.15,0,0,0-2.45-4.7,87.74,87.74,0,0,0-8.11-10.05c-6-6.59-12.48-12.92-19.06-19.18-13.17-12.52-26.68-25-40.07-37.27l-10.2-9.08-10.35-8.86c-3.47-2.93-7-5.76-10.5-8.65l-10.71-8.34-5.46-4-2.73-2-2.78-1.91-5.56-3.82-5.69-3.57a143.19,143.19,0,0,0-23.65-12.06L489.7,9.94,486.59,9c-2.08-.69-4.18-1-6.28-1.5a36.13,36.13,0,0,0-12.53,0,22,22,0,0,0-11,5.41,25.22,25.22,0,0,0-7,10.85Z"/><path class="cls-1" d="M549.16,617c-3.28,9.12-8.51,17.3-14.52,24.91A113.43,113.43,0,0,1,513.47,662c-2,1.38-4,2.83-6.06,4.16l-6.3,3.81a136,136,0,0,1-13.28,6.37l-3.41,1.43c-1.13.49-2.31.81-3.47,1.22l-7,2.34-7.13,1.85c-1.19.29-2.38.64-3.58.88l-3.61.67a194.93,194.93,0,0,1-58.33,1.76,269.12,269.12,0,0,1-56.36-12.78c-18.26-6-35.64-14-52.74-22.36-17-8.53-33.6-17.87-50.12-26.83-8.29-4.44-16.67-8.73-25.15-12.76q-6.36-3-12.81-5.86c-4.28-1.9-8.62-3.68-13-5.35s-8.75-3.25-13.16-4.62a76.63,76.63,0,0,0-13.2-2.92,17.13,17.13,0,0,0-5.75.14,2,2,0,0,0-1.21.64,1.53,1.53,0,0,0-.11.73,13.27,13.27,0,0,0,1.4,4.86,48.21,48.21,0,0,0,3.13,5.65c4.82,7.53,10.81,14.73,16.83,21.82,3,3.55,6.13,7.07,9.24,10.6l9.3,10.67c3.11,3.58,6.21,7.19,9.23,10.95a138.71,138.71,0,0,1,8.9,12,41.55,41.55,0,0,1,2.12,3.71c.17.33.34.71.51,1.09s.34.79.51,1.23a15.85,15.85,0,0,1,.85,3.25c.05.4.08.79.11,1.19,0,.17,0,.41,0,.68s0,.51-.05.77a4.87,4.87,0,0,1-.1.79c-.06.32-.13.64-.22,1s-.18.62-.3.94a11.43,11.43,0,0,1-.51,1.06,8.29,8.29,0,0,1-1.41,1.93,9.74,9.74,0,0,1-.88.83c-.28.22-.58.43-.88.63s-.62.37-.94.54-.53.23-.8.33a9.09,9.09,0,0,1-1.52.47c-.43.09-.86.16-1.29.22s-.69,0-1,.06a14.1,14.1,0,0,1-1.77,0,22.08,22.08,0,0,1-2.73-.41,39.24,39.24,0,0,1-4.28-1.2c-1.31-.44-2.53-.91-3.74-1.38-2.39-1-4.67-2-6.9-3s-4.41-2.13-6.58-3.23l-6.48-3.53-3.24-1.77c-1.06-.62-2.09-1.29-3.14-1.93l-6.24-3.91c-2.06-1.34-4-2.81-6-4.21s-4.05-2.78-5.93-4.34c-3.84-3-7.75-6-11.37-9.29-1.83-1.62-3.71-3.19-5.5-4.85l-5.28-5.07L128.07,641l-2.51-2.66-5-5.32c-1.65-1.79-3.2-3.66-4.79-5.5s-3.22-3.65-4.69-5.58c-3-3.83-6.11-7.56-8.87-11.54l-4.25-5.9-4-6c-2.76-4-5.18-8.17-7.72-12.28-1.29-2-2.42-4.18-3.63-6.27s-2.4-4.19-3.55-6.31l-3.33-6.42L74,564l-1.57-3.26-3.11-6.52c-1-2.17-2-4.39-2.94-6.59-2-4.38-3.77-8.85-5.58-13.3-1-2.22-1.72-4.5-2.55-6.75s-1.66-4.51-2.44-6.78L53.56,514l-1.12-3.43-1-3.45a300.72,300.72,0,0,1-11.56-56.31,212.39,212.39,0,0,1-1-28.75,117,117,0,0,1,4.29-28.36l1.64.36a131.49,131.49,0,0,0-.4,27.9,248.25,248.25,0,0,0,3.94,27.57c1,4.54,1.92,9.08,3.13,13.57,1,4.52,2.38,9,3.6,13.44l2.06,6.65,1,3.32,1.14,3.29,2.24,6.58,2.4,6.52c13.12,34.64,30.63,67.61,52.67,96.9,2.69,3.71,5.6,7.24,8.43,10.83,1.39,1.82,3,3.49,4.42,5.23s3,3.49,4.48,5.18l4.64,5,2.32,2.52,2.42,2.4,4.82,4.83c1.62,1.58,3.33,3.08,5,4.63,3.28,3.15,6.83,6,10.3,8.88,1.71,1.5,3.58,2.77,5.38,4.15s3.59,2.75,5.46,4l5.63,3.77c.94.62,1.86,1.28,2.82,1.87l2.91,1.72,5.82,3.44c2,1.1,4,2.19,6,3.21s4,2,6,2.85a38.06,38.06,0,0,0,5.35,2c.35.1.63.14.76.17s.14,0,0,0l-.15,0a2.07,2.07,0,0,0-.42.08,5.57,5.57,0,0,0-.67.21,3.39,3.39,0,0,0-.39.18,4.4,4.4,0,0,0-.56.31,3.14,3.14,0,0,0-.51.39,4.51,4.51,0,0,0-.58.51,7.56,7.56,0,0,0-.88,1.23,4.33,4.33,0,0,0-.3.66,4.13,4.13,0,0,0-.19.52,3.33,3.33,0,0,0-.11.53l-.05.36a1.72,1.72,0,0,0,0,.32c0,.12,0,.22,0,.25a1,1,0,0,0,0,.3c0,.19.05.1,0-.16s-.07-.24-.15-.42-.12-.32-.21-.51a27.4,27.4,0,0,0-1.29-2.49,126.84,126.84,0,0,0-7.46-11l-8.41-11.16-8.59-11.23q-4.27-5.68-8.49-11.46c-2.8-3.86-5.56-7.77-8.23-11.78s-5.25-8.14-7.58-12.55a57.54,57.54,0,0,1-3.17-7,28.39,28.39,0,0,1-1.16-4,15.47,15.47,0,0,1-.28-4.86,9.27,9.27,0,0,1,.79-2.9,8.22,8.22,0,0,1,1.94-2.67,10,10,0,0,1,5.05-2.41,24.11,24.11,0,0,1,8.33.2A84.57,84.57,0,0,1,180,590c4.53,1.61,9,3.39,13.34,5.27,17.45,7.59,34.34,16,51.28,24.45,16.88,8.56,33.91,16.31,51.37,23.16,2.15.92,4.37,1.66,6.57,2.46l6.6,2.38c4.4,1.56,8.75,3.26,13.23,4.57s8.86,2.85,13.29,4.27,9,2.45,13.4,3.77a407.27,407.27,0,0,0,54,11.34,207.38,207.38,0,0,0,54.41.18l3.37-.44c1.12-.16,2.21-.43,3.32-.64l6.66-1.3,6.55-1.74c1.08-.31,2.2-.53,3.26-.92l3.21-1.08a122.46,122.46,0,0,0,24.7-11.18A120.44,120.44,0,0,0,530.3,638a101.24,101.24,0,0,0,17.31-21.59Z"/><path class="cls-1" d="M139.61,296.39a38.22,38.22,0,0,1-10.48-3.19,25.11,25.11,0,0,1-9.16-7.11,18.2,18.2,0,0,1-2.91-5.6,19.18,19.18,0,0,1-.85-6.37,22.31,22.31,0,0,1,1-6.16,33.85,33.85,0,0,1,2.2-5.59c3.56-7,8.46-12.76,13.63-18a161.5,161.5,0,0,1,16.5-14.25,317.42,317.42,0,0,1,36-23.35,387.32,387.32,0,0,1,38-19.05c12.95-5.68,26.17-10.67,39.47-15.5,6.69-2.34,13.32-4.78,20.07-7s13.44-4.44,20.27-6.4a138.44,138.44,0,0,1,21-4.68l1.36-.17,1.39-.09c.93-.05,1.85-.14,2.8-.1a25.3,25.3,0,0,1,2.87.11l1.46.15c.49.06,1,.2,1.49.3a13.13,13.13,0,0,1,5.86,2.76,10.87,10.87,0,0,1,3.56,5.87,20,20,0,0,1,.35,6.2c-.06,1-.24,1.92-.37,2.88s-.37,1.87-.61,2.77a85.47,85.47,0,0,1-3.33,10.45c-2.59,6.71-5.41,13.2-8.13,19.63s-5.32,12.87-6.79,19c-.16.76-.36,1.53-.46,2.25l-.18,1.1-.1,1a19,19,0,0,0-.07,1.95c0,.29.06.55.08.83,0,.13,0,.27,0,.39s.06.21.09.32a3.77,3.77,0,0,0,.33,1,.66.66,0,0,1,.18.23c.06.07.15.08.19.14a5.19,5.19,0,0,0,1.53.59,4.4,4.4,0,0,0,.74.12c.27,0,.49.1.8.11.64,0,1.2.08,1.89.06s1.37,0,2.09-.09l2.21-.23c2.85-.43,6.59-1.15,10.08-1.7,7.06-1.14,14.12-2.05,21.18-2.88s14.15-1.52,21.23-2.08,14.19-1,21.3-1.29c14.21-.67,28.46-.6,42.72.12a356.46,356.46,0,0,1,42.71,4.73,203.18,203.18,0,0,1,42,11.63A97.92,97.92,0,0,1,556.43,253c6.16,4.36,11.89,9.93,15.68,16.89a35.68,35.68,0,0,1,4,22.55l-.18,1.39c-.08.47-.2.92-.3,1.37-.22.91-.4,1.82-.65,2.71-.56,1.76-1.07,3.53-1.79,5.2a62.86,62.86,0,0,1-4.89,9.61L566.8,312a76.08,76.08,0,0,0,2.82-10,47.7,47.7,0,0,0,.8-5c.09-.83.1-1.66.15-2.49a20.22,20.22,0,0,0,0-2.46,30,30,0,0,0-5.78-17.66,34.81,34.81,0,0,0-6.48-6.7,51.47,51.47,0,0,0-7.92-5.37c-1.37-.83-2.88-1.51-4.32-2.25s-3-1.38-4.51-2c-3-1.26-6.19-2.36-9.35-3.39a175.48,175.48,0,0,0-19.62-4.8c-6.65-1.3-13.41-2.28-20.19-3.11-13.59-1.6-27.33-2.49-41.11-3a815,815,0,0,0-83,1.14q-10.36.74-20.66,1.85l-5.13.6-2.7.29c-1,.09-1.94.2-2.94.27l-3,.11c-1,0-2.12-.06-3.17-.11s-2.24-.27-3.35-.42c-.56-.09-1.19-.27-1.77-.41a15.78,15.78,0,0,1-1.81-.53,16.57,16.57,0,0,1-7.28-4.89,18.53,18.53,0,0,1-1.38-2c-.36-.69-.69-1.4-1-2.11a17.67,17.67,0,0,1-.93-4.1l-.1-1c0-.32,0-.61,0-.92,0-.6,0-1.22.06-1.81a30,30,0,0,1,.49-3.28L314,225l.41-1.46c.25-1,.59-1.9.9-2.83a93.4,93.4,0,0,1,4.46-10.27c1.63-3.24,3.32-6.38,5-9.49,3.38-6.21,6.93-12.23,9.86-18.42a78.82,78.82,0,0,0,3.85-9.33c.26-.78.44-1.56.67-2.34s.36-1.55.45-2.31a12.76,12.76,0,0,0,0-4.27,5.17,5.17,0,0,0-1.62-3.06,7.56,7.56,0,0,0-3.52-1.72,27.67,27.67,0,0,0-9.57-.27,99.17,99.17,0,0,0-20,4.81c-13.16,4.4-25.81,10.42-38.28,16.68s-24.73,13.1-37.06,19.61l-36.85,19.5c-12.17,6.6-24.18,13.44-35.61,20.94a189,189,0,0,0-16.41,12,87,87,0,0,0-7.35,6.68,51.84,51.84,0,0,0-6.13,7.35,26.77,26.77,0,0,0-2.22,3.95,17.56,17.56,0,0,0-1.34,4.06,11.8,11.8,0,0,0,1.19,8.05,21,21,0,0,0,6.27,6.94,41.67,41.67,0,0,0,8.86,5Z"/><path class="cls-1" d="M514.27,486.64a137.83,137.83,0,0,0-11.4,19.88,45.68,45.68,0,0,0-3.45,10.25,17.91,17.91,0,0,0-.27,4.7,6,6,0,0,0,1.19,3.23,4.29,4.29,0,0,0,1.11,1,6.92,6.92,0,0,0,1.54.79,16.33,16.33,0,0,0,4.25.89,37.84,37.84,0,0,0,5,0l1.33-.08,1.73-.06a17,17,0,0,1,1.75,0,17.52,17.52,0,0,1,1.77.11,26.15,26.15,0,0,1,13.76,5.38,23.23,23.23,0,0,1,8.3,13.22,26.34,26.34,0,0,1-1.29,15.27,34.45,34.45,0,0,1-3.4,6.52,40.75,40.75,0,0,1-4.48,5.49,58.9,58.9,0,0,1-22.53,13.61,101.5,101.5,0,0,1-24.39,5.19,144.86,144.86,0,0,1-24.28.16c-16-1.14-31.59-4.47-46.79-8.48-7.59-2.07-15.12-4.25-22.58-6.62l-5.59-1.76L380,573.58,368.89,570c-14.78-4.83-29.62-9.45-44.38-14.58-3.69-1.3-7.38-2.59-11.05-4s-7.36-2.85-11-4.56c-1.82-.87-3.64-1.77-5.45-2.83a31.45,31.45,0,0,1-5.45-3.77,15.19,15.19,0,0,1-2.64-3,8.87,8.87,0,0,1-1.39-5.29,9.34,9.34,0,0,1,2.05-5,17.52,17.52,0,0,1,2.88-2.81,48.39,48.39,0,0,1,5.43-3.57c1.73-1,3.39-2,4.91-2.91a19.88,19.88,0,0,0,3.65-2.77c.4-.41.54-.74.5-.77s-.19.41-.2.62-.05.07-.34-.25c-.1-.13-.36-.34-.51-.53l-.7-.62a33.83,33.83,0,0,0-3.9-2.66l-2.37-1.37c-.94-.56-1.9-1.1-2.8-1.72a53.32,53.32,0,0,1-5.31-4,57.25,57.25,0,0,1-15.51-21.12,76.58,76.58,0,0,1-6-25A91.86,91.86,0,0,1,271,432a82.2,82.2,0,0,1,9.13-24.25,57,57,0,0,1,8.21-11,49.94,49.94,0,0,1,5.42-4.77,41,41,0,0,1,6.44-3.91,33.7,33.7,0,0,1,15.31-3.35,35.61,35.61,0,0,1,3.81.33c1.18.19,2.36.29,3.54.56s2.36.55,3.54.85l3.45,1.18a48.3,48.3,0,0,1,12.31,7.15A70.77,70.77,0,0,1,351.6,404c5.49,6.28,9.92,12.49,14.69,17.39s9.74,8.33,15.74,9.59a37.1,37.1,0,0,0,9.53.75l2.53-.24,1.27-.13,1.29-.22,2.58-.44c.86-.19,1.72-.41,2.59-.62l5.74-1.41c2-.56,4.11-.81,6.16-1.2a67.32,67.32,0,0,1,12.72-.73,48.82,48.82,0,0,1,12.86,2.18,33,33,0,0,1,11.71,6.6,22.42,22.42,0,0,1,7.24,11.79,17.28,17.28,0,0,1-2.43,13.59l-1,1.39c-.38.43-.78.83-1.17,1.24l-.59.6-.65.52-1.29,1c-.93.57-1.84,1.18-2.79,1.64l-1.46.65-.72.33-.74.24a34.32,34.32,0,0,1-12,1.66l-.1-1.67a34.6,34.6,0,0,0,10.6-3.42l.61-.3.55-.37,1.11-.73c.72-.5,1.35-1.1,2-1.64l.86-.94.42-.46.35-.51.69-1,.55-1.07a10.49,10.49,0,0,0,1.09-4.44l0-.56-.06-.56c-.05-.38-.05-.75-.12-1.12a11.81,11.81,0,0,0-.62-2.16,15.31,15.31,0,0,0-5.76-7.05,23.91,23.91,0,0,0-9-3.69,39.54,39.54,0,0,0-10.17-.66,57.5,57.5,0,0,0-10.4,1.63l-2.58.73-1.29.35-1.28.42-5.45,1.8c-1,.32-2,.66-3,1l-3.11.79-1.56.39-1.61.29-3.23.55a49.64,49.64,0,0,1-13.66-.06,41,41,0,0,1-13.41-4.55,54.17,54.17,0,0,1-10.95-8.05c-6.37-5.93-11.19-12.27-16.14-17.46s-9.83-9.26-15.27-11.19c-.69-.21-1.38-.43-2.06-.66l-2.13-.49c-.71-.18-1.47-.21-2.2-.34a15.58,15.58,0,0,0-2-.18,16.59,16.59,0,0,0-7.21,1.61c-4.78,2.17-9.26,6.87-12.78,12.42a65,65,0,0,0-7.76,18.91,76.15,76.15,0,0,0-2.24,20.83c.41,13.95,5.12,27.65,14.68,37a39.82,39.82,0,0,0,3.79,3.3c.65.54,1.36,1,2.05,1.49l2.55,1.75a43.71,43.71,0,0,1,5.28,4.47c.44.49.88.94,1.31,1.47a21.05,21.05,0,0,1,1.28,1.76,12.73,12.73,0,0,1,1.95,5.05,10.12,10.12,0,0,1-1.15,6.25,13.29,13.29,0,0,1-3.12,3.74,29.46,29.46,0,0,1-6,3.74c-1.87.93-3.68,1.73-5.38,2.52a42.4,42.4,0,0,0-4.56,2.37,9.47,9.47,0,0,0-1.43,1.08c-.3.3-.29.34-.31.17s-.15-.14,0,.25a6.36,6.36,0,0,0,1.05,1.44,22.6,22.6,0,0,0,3.84,3.2c1.47,1,3.06,2,4.68,2.89a173.18,173.18,0,0,0,20.77,9.62c14.34,5.67,29.1,10.44,44,14.69,7.46,2.1,14.92,4.1,22.45,5.74s15.1,3.09,22.7,4.2A320.93,320.93,0,0,0,461,578.29c3.75,0,7.48-.09,11.19-.24s7.39-.44,11-.88a106.13,106.13,0,0,0,21.07-4.35c6.62-2.21,12.8-5.36,17.36-9.64a30.74,30.74,0,0,0,3-3.37,21.67,21.67,0,0,0,2.17-3.67,13.78,13.78,0,0,0,1.19-7.54,10.92,10.92,0,0,0-3.37-6.38,14.59,14.59,0,0,0-7.4-3.54,10.06,10.06,0,0,0-1.12-.19c-.38,0-.76-.12-1.15-.13l-1.18-.07-1.58,0a43.55,43.55,0,0,1-6.59-.73,25.36,25.36,0,0,1-6.88-2.34,14.81,14.81,0,0,1-6.08-5.68,13.78,13.78,0,0,1-1.52-4,17.54,17.54,0,0,1-.35-3.89,23.46,23.46,0,0,1,1.3-6.8,51.31,51.31,0,0,1,5.56-11.14A104.26,104.26,0,0,1,513,485.54Z"/></g></g></svg>